<svg width="106" height="134" viewBox="0 0 106 134" fill="none" xmlns="http://www.w3.org/2000/svg">
<circle cx="104" cy="132" r="1.66667" transform="rotate(180 104 132)" fill="#13C296"/>
<circle cx="104" cy="117.333" r="1.66667" transform="rotate(180 104 117.333)" fill="#13C296"/>
<circle cx="104" cy="102.667" r="1.66667" transform="rotate(180 104 102.667)" fill="#13C296"/>
<circle cx="104" cy="88" r="1.66667" transform="rotate(180 104 88)" fill="#13C296"/>
<circle cx="104" cy="73.333" r="1.66667" transform="rotate(180 104 73.333)" fill="#13C296"/>
<circle cx="104" cy="45" r="1.66667" transform="rotate(180 104 45)" fill="#13C296"/>
<circle cx="104" cy="16" r="1.66667" transform="rotate(180 104 16)" fill="#13C296"/>
<circle cx="104" cy="59" r="1.66667" transform="rotate(180 104 59)" fill="#13C296"/>
<circle cx="104" cy="30.667" r="1.66667" transform="rotate(180 104 30.667)" fill="#13C296"/>
<circle cx="104" cy="1.66703" r="1.66667" transform="rotate(180 104 1.66703)" fill="#13C296"/>
<circle cx="89.3334" cy="132" r="1.66667" transform="rotate(180 89.3334 132)" fill="#13C296"/>
<circle cx="89.3334" cy="117.333" r="1.66667" transform="rotate(180 89.3334 117.333)" fill="#13C296"/>
<circle cx="89.3334" cy="102.667" r="1.66667" transform="rotate(180 89.3334 102.667)" fill="#13C296"/>
<circle cx="89.3334" cy="88" r="1.66667" transform="rotate(180 89.3334 88)" fill="#13C296"/>
<circle cx="89.3337" cy="73.333" r="1.66667" transform="rotate(180 89.3337 73.333)" fill="#13C296"/>
<circle cx="89.3337" cy="45" r="1.66667" transform="rotate(180 89.3337 45)" fill="#13C296"/>
<circle cx="89.3337" cy="16" r="1.66667" transform="rotate(180 89.3337 16)" fill="#13C296"/>
<circle cx="89.3337" cy="59" r="1.66667" transform="rotate(180 89.3337 59)" fill="#13C296"/>
<circle cx="89.3337" cy="30.667" r="1.66667" transform="rotate(180 89.3337 30.667)" fill="#13C296"/>
<circle cx="89.3337" cy="1.66703" r="1.66667" transform="rotate(180 89.3337 1.66703)" fill="#13C296"/>
<circle cx="74.6669" cy="132" r="1.66667" transform="rotate(180 74.6669 132)" fill="#13C296"/>
<circle cx="31.0002" cy="132" r="1.66667" transform="rotate(180 31.0002 132)" fill="#13C296"/>
<circle cx="74.6669" cy="117.333" r="1.66667" transform="rotate(180 74.6669 117.333)" fill="#13C296"/>
<circle cx="31.0002" cy="117.333" r="1.66667" transform="rotate(180 31.0002 117.333)" fill="#13C296"/>
<circle cx="74.6669" cy="102.667" r="1.66667" transform="rotate(180 74.6669 102.667)" fill="#13C296"/>
<circle cx="31.0002" cy="102.667" r="1.66667" transform="rotate(180 31.0002 102.667)" fill="#13C296"/>
<circle cx="74.6669" cy="88" r="1.66667" transform="rotate(180 74.6669 88)" fill="#13C296"/>
<circle cx="31.0002" cy="88" r="1.66667" transform="rotate(180 31.0002 88)" fill="#13C296"/>
<circle cx="74.6667" cy="73.333" r="1.66667" transform="rotate(180 74.6667 73.333)" fill="#13C296"/>
<circle cx="30.9999" cy="73.333" r="1.66667" transform="rotate(180 30.9999 73.333)" fill="#13C296"/>
<circle cx="74.6667" cy="45" r="1.66667" transform="rotate(180 74.6667 45)" fill="#13C296"/>
<circle cx="30.9999" cy="45" r="1.66667" transform="rotate(180 30.9999 45)" fill="#13C296"/>
<circle cx="74.6667" cy="16" r="1.66667" transform="rotate(180 74.6667 16)" fill="#13C296"/>
<circle cx="30.9999" cy="16" r="1.66667" transform="rotate(180 30.9999 16)" fill="#13C296"/>
<circle cx="74.6667" cy="59" r="1.66667" transform="rotate(180 74.6667 59)" fill="#13C296"/>
<circle cx="30.9999" cy="59" r="1.66667" transform="rotate(180 30.9999 59)" fill="#13C296"/>
<circle cx="74.6667" cy="30.667" r="1.66667" transform="rotate(180 74.6667 30.667)" fill="#13C296"/>
<circle cx="30.9999" cy="30.667" r="1.66667" transform="rotate(180 30.9999 30.667)" fill="#13C296"/>
<circle cx="74.6667" cy="1.66703" r="1.66667" transform="rotate(180 74.6667 1.66703)" fill="#13C296"/>
<circle cx="30.9999" cy="1.66703" r="1.66667" transform="rotate(180 30.9999 1.66703)" fill="#13C296"/>
<circle cx="60.0002" cy="132" r="1.66667" transform="rotate(180 60.0002 132)" fill="#13C296"/>
<circle cx="16.3334" cy="132" r="1.66667" transform="rotate(180 16.3334 132)" fill="#13C296"/>
<circle cx="60.0002" cy="117.333" r="1.66667" transform="rotate(180 60.0002 117.333)" fill="#13C296"/>
<circle cx="16.3334" cy="117.333" r="1.66667" transform="rotate(180 16.3334 117.333)" fill="#13C296"/>
<circle cx="60.0002" cy="102.667" r="1.66667" transform="rotate(180 60.0002 102.667)" fill="#13C296"/>
<circle cx="16.3334" cy="102.667" r="1.66667" transform="rotate(180 16.3334 102.667)" fill="#13C296"/>
<circle cx="60.0002" cy="88" r="1.66667" transform="rotate(180 60.0002 88)" fill="#13C296"/>
<circle cx="16.3334" cy="88" r="1.66667" transform="rotate(180 16.3334 88)" fill="#13C296"/>
<circle cx="60.0002" cy="73.333" r="1.66667" transform="rotate(180 60.0002 73.333)" fill="#13C296"/>
<circle cx="16.3334" cy="73.333" r="1.66667" transform="rotate(180 16.3334 73.333)" fill="#13C296"/>
<circle cx="60.0002" cy="45" r="1.66667" transform="rotate(180 60.0002 45)" fill="#13C296"/>
<circle cx="16.3334" cy="45" r="1.66667" transform="rotate(180 16.3334 45)" fill="#13C296"/>
<circle cx="60.0002" cy="16" r="1.66667" transform="rotate(180 60.0002 16)" fill="#13C296"/>
<circle cx="16.3334" cy="16" r="1.66667" transform="rotate(180 16.3334 16)" fill="#13C296"/>
<circle cx="60.0002" cy="59" r="1.66667" transform="rotate(180 60.0002 59)" fill="#13C296"/>
<circle cx="16.3334" cy="59" r="1.66667" transform="rotate(180 16.3334 59)" fill="#13C296"/>
<circle cx="60.0002" cy="30.667" r="1.66667" transform="rotate(180 60.0002 30.667)" fill="#13C296"/>
<circle cx="16.3334" cy="30.667" r="1.66667" transform="rotate(180 16.3334 30.667)" fill="#13C296"/>
<circle cx="60.0002" cy="1.66703" r="1.66667" transform="rotate(180 60.0002 1.66703)" fill="#13C296"/>
<circle cx="16.3334" cy="1.66703" r="1.66667" transform="rotate(180 16.3334 1.66703)" fill="#13C296"/>
<circle cx="45.3334" cy="132" r="1.66667" transform="rotate(180 45.3334 132)" fill="#13C296"/>
<circle cx="1.66669" cy="132" r="1.66667" transform="rotate(180 1.66669 132)" fill="#13C296"/>
<circle cx="45.3334" cy="117.333" r="1.66667" transform="rotate(180 45.3334 117.333)" fill="#13C296"/>
<circle cx="1.66669" cy="117.333" r="1.66667" transform="rotate(180 1.66669 117.333)" fill="#13C296"/>
<circle cx="45.3334" cy="102.667" r="1.66667" transform="rotate(180 45.3334 102.667)" fill="#13C296"/>
<circle cx="1.66669" cy="102.667" r="1.66667" transform="rotate(180 1.66669 102.667)" fill="#13C296"/>
<circle cx="45.3334" cy="88" r="1.66667" transform="rotate(180 45.3334 88)" fill="#13C296"/>
<circle cx="1.66669" cy="88" r="1.66667" transform="rotate(180 1.66669 88)" fill="#13C296"/>
<circle cx="45.3337" cy="73.333" r="1.66667" transform="rotate(180 45.3337 73.333)" fill="#13C296"/>
<circle cx="1.66693" cy="73.333" r="1.66667" transform="rotate(180 1.66693 73.333)" fill="#13C296"/>
<circle cx="45.3337" cy="45" r="1.66667" transform="rotate(180 45.3337 45)" fill="#13C296"/>
<circle cx="1.66693" cy="45" r="1.66667" transform="rotate(180 1.66693 45)" fill="#13C296"/>
<circle cx="45.3337" cy="16" r="1.66667" transform="rotate(180 45.3337 16)" fill="#13C296"/>
<circle cx="1.66693" cy="16" r="1.66667" transform="rotate(180 1.66693 16)" fill="#13C296"/>
<circle cx="45.3337" cy="59" r="1.66667" transform="rotate(180 45.3337 59)" fill="#13C296"/>
<circle cx="1.66693" cy="59" r="1.66667" transform="rotate(180 1.66693 59)" fill="#13C296"/>
<circle cx="45.3337" cy="30.667" r="1.66667" transform="rotate(180 45.3337 30.667)" fill="#13C296"/>
<circle cx="1.66693" cy="30.667" r="1.66667" transform="rotate(180 1.66693 30.667)" fill="#13C296"/>
<circle cx="45.3337" cy="1.66703" r="1.66667" transform="rotate(180 45.3337 1.66703)" fill="#13C296"/>
<circle cx="1.66693" cy="1.66703" r="1.66667" transform="rotate(180 1.66693 1.66703)" fill="#13C296"/>
</svg>
