<svg preserveAspectRatio="none" width="100%" height="100%" overflow="visible" style="display: block;" viewBox="0 0 105.667 133.667" fill="none" xmlns="http://www.w3.org/2000/svg">
<g id="Dotted Shape">
<circle id="Ellipse 1" cx="1.66667" cy="1.66667" r="1.66667" fill="var(--fill-0, #13C296)"/>
<circle id="Ellipse 6" cx="1.66667" cy="16.3333" r="1.66667" fill="var(--fill-0, #13C296)"/>
<circle id="Ellipse 11" cx="1.66667" cy="31" r="1.66667" fill="var(--fill-0, #13C296)"/>
<circle id="Ellipse 16" cx="1.66667" cy="45.6667" r="1.66667" fill="var(--fill-0, #13C296)"/>
<circle id="Ellipse 21" cx="1.66667" cy="60.3333" r="1.66667" fill="var(--fill-0, #13C296)"/>
<circle id="Ellipse 31" cx="1.66667" cy="88.6667" r="1.66667" fill="var(--fill-0, #13C296)"/>
<circle id="Ellipse 41" cx="1.66667" cy="117.667" r="1.66667" fill="var(--fill-0, #13C296)"/>
<circle id="Ellipse 26" cx="1.66667" cy="74.6667" r="1.66667" fill="var(--fill-0, #13C296)"/>
<circle id="Ellipse 32" cx="1.66667" cy="103" r="1.66667" fill="var(--fill-0, #13C296)"/>
<circle id="Ellipse 42" cx="1.66667" cy="132" r="1.66667" fill="var(--fill-0, #13C296)"/>
<circle id="Ellipse 2" cx="16.3334" cy="1.66667" r="1.66667" fill="var(--fill-0, #13C296)"/>
<circle id="Ellipse 7" cx="16.3334" cy="16.3333" r="1.66667" fill="var(--fill-0, #13C296)"/>
<circle id="Ellipse 12" cx="16.3334" cy="31" r="1.66667" fill="var(--fill-0, #13C296)"/>
<circle id="Ellipse 17" cx="16.3334" cy="45.6667" r="1.66667" fill="var(--fill-0, #13C296)"/>
<circle id="Ellipse 22" cx="16.3332" cy="60.3333" r="1.66667" fill="var(--fill-0, #13C296)"/>
<circle id="Ellipse 33" cx="16.3332" cy="88.6667" r="1.66667" fill="var(--fill-0, #13C296)"/>
<circle id="Ellipse 43" cx="16.3332" cy="117.667" r="1.66667" fill="var(--fill-0, #13C296)"/>
<circle id="Ellipse 27" cx="16.3332" cy="74.6667" r="1.66667" fill="var(--fill-0, #13C296)"/>
<circle id="Ellipse 34" cx="16.3332" cy="103" r="1.66667" fill="var(--fill-0, #13C296)"/>
<circle id="Ellipse 44" cx="16.3332" cy="132" r="1.66667" fill="var(--fill-0, #13C296)"/>
<circle id="Ellipse 3" cx="30.9999" cy="1.66667" r="1.66667" fill="var(--fill-0, #13C296)"/>
<circle id="Ellipse 51" cx="74.6667" cy="1.66667" r="1.66667" fill="var(--fill-0, #13C296)"/>
<circle id="Ellipse 8" cx="30.9999" cy="16.3333" r="1.66667" fill="var(--fill-0, #13C296)"/>
<circle id="Ellipse 52" cx="74.6667" cy="16.3333" r="1.66667" fill="var(--fill-0, #13C296)"/>
<circle id="Ellipse 13" cx="30.9999" cy="31" r="1.66667" fill="var(--fill-0, #13C296)"/>
<circle id="Ellipse 53" cx="74.6667" cy="31" r="1.66667" fill="var(--fill-0, #13C296)"/>
<circle id="Ellipse 18" cx="30.9999" cy="45.6667" r="1.66667" fill="var(--fill-0, #13C296)"/>
<circle id="Ellipse 54" cx="74.6667" cy="45.6667" r="1.66667" fill="var(--fill-0, #13C296)"/>
<circle id="Ellipse 23" cx="31.0002" cy="60.3333" r="1.66667" fill="var(--fill-0, #13C296)"/>
<circle id="Ellipse 55" cx="74.6669" cy="60.3333" r="1.66667" fill="var(--fill-0, #13C296)"/>
<circle id="Ellipse 35" cx="31.0002" cy="88.6667" r="1.66667" fill="var(--fill-0, #13C296)"/>
<circle id="Ellipse 56" cx="74.6669" cy="88.6667" r="1.66667" fill="var(--fill-0, #13C296)"/>
<circle id="Ellipse 45" cx="31.0002" cy="117.667" r="1.66667" fill="var(--fill-0, #13C296)"/>
<circle id="Ellipse 57" cx="74.6669" cy="117.667" r="1.66667" fill="var(--fill-0, #13C296)"/>
<circle id="Ellipse 28" cx="31.0002" cy="74.6667" r="1.66667" fill="var(--fill-0, #13C296)"/>
<circle id="Ellipse 58" cx="74.6669" cy="74.6667" r="1.66667" fill="var(--fill-0, #13C296)"/>
<circle id="Ellipse 36" cx="31.0002" cy="103" r="1.66667" fill="var(--fill-0, #13C296)"/>
<circle id="Ellipse 59" cx="74.6669" cy="103" r="1.66667" fill="var(--fill-0, #13C296)"/>
<circle id="Ellipse 46" cx="31.0002" cy="132" r="1.66667" fill="var(--fill-0, #13C296)"/>
<circle id="Ellipse 60" cx="74.6669" cy="132" r="1.66667" fill="var(--fill-0, #13C296)"/>
<circle id="Ellipse 4" cx="45.6667" cy="1.66667" r="1.66667" fill="var(--fill-0, #13C296)"/>
<circle id="Ellipse 61" cx="89.3334" cy="1.66667" r="1.66667" fill="var(--fill-0, #13C296)"/>
<circle id="Ellipse 9" cx="45.6667" cy="16.3333" r="1.66667" fill="var(--fill-0, #13C296)"/>
<circle id="Ellipse 62" cx="89.3334" cy="16.3333" r="1.66667" fill="var(--fill-0, #13C296)"/>
<circle id="Ellipse 14" cx="45.6667" cy="31" r="1.66667" fill="var(--fill-0, #13C296)"/>
<circle id="Ellipse 63" cx="89.3334" cy="31" r="1.66667" fill="var(--fill-0, #13C296)"/>
<circle id="Ellipse 19" cx="45.6667" cy="45.6667" r="1.66667" fill="var(--fill-0, #13C296)"/>
<circle id="Ellipse 64" cx="89.3334" cy="45.6667" r="1.66667" fill="var(--fill-0, #13C296)"/>
<circle id="Ellipse 24" cx="45.6667" cy="60.3333" r="1.66667" fill="var(--fill-0, #13C296)"/>
<circle id="Ellipse 65" cx="89.3334" cy="60.3333" r="1.66667" fill="var(--fill-0, #13C296)"/>
<circle id="Ellipse 37" cx="45.6667" cy="88.6667" r="1.66667" fill="var(--fill-0, #13C296)"/>
<circle id="Ellipse 66" cx="89.3334" cy="88.6667" r="1.66667" fill="var(--fill-0, #13C296)"/>
<circle id="Ellipse 47" cx="45.6667" cy="117.667" r="1.66667" fill="var(--fill-0, #13C296)"/>
<circle id="Ellipse 67" cx="89.3334" cy="117.667" r="1.66667" fill="var(--fill-0, #13C296)"/>
<circle id="Ellipse 29" cx="45.6667" cy="74.6667" r="1.66667" fill="var(--fill-0, #13C296)"/>
<circle id="Ellipse 68" cx="89.3334" cy="74.6667" r="1.66667" fill="var(--fill-0, #13C296)"/>
<circle id="Ellipse 38" cx="45.6667" cy="103" r="1.66667" fill="var(--fill-0, #13C296)"/>
<circle id="Ellipse 69" cx="89.3334" cy="103" r="1.66667" fill="var(--fill-0, #13C296)"/>
<circle id="Ellipse 48" cx="45.6667" cy="132" r="1.66667" fill="var(--fill-0, #13C296)"/>
<circle id="Ellipse 70" cx="89.3334" cy="132" r="1.66667" fill="var(--fill-0, #13C296)"/>
<circle id="Ellipse 5" cx="60.3334" cy="1.66667" r="1.66667" fill="var(--fill-0, #13C296)"/>
<circle id="Ellipse 71" cx="104" cy="1.66667" r="1.66667" fill="var(--fill-0, #13C296)"/>
<circle id="Ellipse 10" cx="60.3334" cy="16.3333" r="1.66667" fill="var(--fill-0, #13C296)"/>
<circle id="Ellipse 72" cx="104" cy="16.3333" r="1.66667" fill="var(--fill-0, #13C296)"/>
<circle id="Ellipse 15" cx="60.3334" cy="31" r="1.66667" fill="var(--fill-0, #13C296)"/>
<circle id="Ellipse 73" cx="104" cy="31" r="1.66667" fill="var(--fill-0, #13C296)"/>
<circle id="Ellipse 20" cx="60.3334" cy="45.6667" r="1.66667" fill="var(--fill-0, #13C296)"/>
<circle id="Ellipse 74" cx="104" cy="45.6667" r="1.66667" fill="var(--fill-0, #13C296)"/>
<circle id="Ellipse 25" cx="60.3332" cy="60.3333" r="1.66667" fill="var(--fill-0, #13C296)"/>
<circle id="Ellipse 75" cx="104" cy="60.3333" r="1.66667" fill="var(--fill-0, #13C296)"/>
<circle id="Ellipse 39" cx="60.3332" cy="88.6667" r="1.66667" fill="var(--fill-0, #13C296)"/>
<circle id="Ellipse 76" cx="104" cy="88.6667" r="1.66667" fill="var(--fill-0, #13C296)"/>
<circle id="Ellipse 49" cx="60.3332" cy="117.667" r="1.66667" fill="var(--fill-0, #13C296)"/>
<circle id="Ellipse 77" cx="104" cy="117.667" r="1.66667" fill="var(--fill-0, #13C296)"/>
<circle id="Ellipse 30" cx="60.3332" cy="74.6667" r="1.66667" fill="var(--fill-0, #13C296)"/>
<circle id="Ellipse 78" cx="104" cy="74.6667" r="1.66667" fill="var(--fill-0, #13C296)"/>
<circle id="Ellipse 40" cx="60.3332" cy="103" r="1.66667" fill="var(--fill-0, #13C296)"/>
<circle id="Ellipse 79" cx="104" cy="103" r="1.66667" fill="var(--fill-0, #13C296)"/>
<circle id="Ellipse 50" cx="60.3332" cy="132" r="1.66667" fill="var(--fill-0, #13C296)"/>
<circle id="Ellipse 80" cx="104" cy="132" r="1.66667" fill="var(--fill-0, #13C296)"/>
</g>
</svg>
