<svg preserveAspectRatio="none" width="100%" height="100%" overflow="visible" style="display: block;" viewBox="0 0 27.598 27.6643" fill="none" xmlns="http://www.w3.org/2000/svg">
<g id="Group">
<path id="Vector" d="M21.4194 27.6643C20.1851 27.6643 18.768 27.3443 17.2137 26.75C14.1051 25.5158 10.6765 23.1386 7.61369 20.0758C4.55083 17.0129 2.17369 13.5843 0.939403 10.43C-0.432025 7.04718 -0.294883 4.25861 1.30512 2.70432C1.35083 2.65861 1.44226 2.61289 1.48797 2.56718L5.32797 0.281465C6.28797 -0.267106 7.52226 0.00717926 8.16226 0.921465L10.8594 4.94432C11.4994 5.90432 11.2251 7.18432 10.3108 7.82432L8.66512 8.96718C9.85369 10.8872 13.2365 15.5958 18.6308 18.9786L19.6365 17.5158C20.4137 16.4186 21.648 16.0986 22.6537 16.7843L26.6765 19.4815C27.5908 20.1215 27.8651 21.3558 27.3165 22.3158L25.0308 26.1558C24.9851 26.2472 24.9394 26.2929 24.8937 26.3386C24.0708 27.2072 22.8823 27.6643 21.4194 27.6643ZM2.67655 4.25861C1.80797 5.21861 1.85369 7.18432 2.8594 9.69861C4.00226 12.5786 6.19655 15.7329 9.07655 18.6129C11.9108 21.4472 15.1108 23.6415 17.9451 24.7843C20.4137 25.79 22.3794 25.8358 23.3851 24.9672L25.5794 21.2186C25.5794 21.1729 25.5794 21.1729 25.5794 21.1272L21.5565 18.43C21.5565 18.43 21.4651 18.4758 21.3737 18.6129L20.368 20.0758C19.728 20.99 18.4937 21.2643 17.5794 20.67C11.8194 17.1043 8.25369 12.1215 6.97369 10.11C6.3794 9.15004 6.60797 7.91575 7.52226 7.27575L9.16797 6.13289V6.08718L6.47083 2.06432C6.47083 2.01861 6.42512 2.01861 6.3794 2.06432L2.67655 4.25861Z" fill="var(--fill-0, #0069E5)"/>
</g>
</svg>
