<svg preserveAspectRatio="none" width="100%" height="100%" overflow="visible" style="display: block;" viewBox="0 0 27.7029 20.5714" fill="none" xmlns="http://www.w3.org/2000/svg">
<path id="Vector" d="M24.8229 0H2.88C1.32571 0 0 1.28 0 2.88V17.6914C0 19.2457 1.28 20.5714 2.88 20.5714H24.8229C26.3771 20.5714 27.7029 19.2914 27.7029 17.6914V2.83429C27.7029 1.28 26.3771 0 24.8229 0ZM24.8229 2.05714C24.8686 2.05714 24.9143 2.05714 24.96 2.05714L13.8514 9.18857L2.74286 2.05714C2.78857 2.05714 2.83429 2.05714 2.88 2.05714H24.8229ZM24.8229 18.4229H2.88C2.42286 18.4229 2.05714 18.0571 2.05714 17.6V4.06857L12.7543 10.9257C13.0743 11.1543 13.44 11.2457 13.8057 11.2457C14.1714 11.2457 14.5371 11.1543 14.8571 10.9257L25.5543 4.06857V17.6457C25.6457 18.1029 25.28 18.4229 24.8229 18.4229Z" fill="var(--fill-0, #0069E5)"/>
</svg>
