<svg preserveAspectRatio="none" width="100%" height="100%" overflow="visible" style="display: block;" viewBox="0 0 27.2 27.4743" fill="none" xmlns="http://www.w3.org/2000/svg">
<path id="Vector" d="M25.8743 7.95429L15.3143 0.548571C14.2629 -0.182857 12.8914 -0.182857 11.84 0.548571L1.28 7.95429C0.457143 8.50286 0 9.46286 0 10.4229V24.4571C0 26.1029 1.37143 27.4743 3.01714 27.4743H24.1829C25.8286 27.4743 27.2 26.1029 27.2 24.4571V10.4229C27.2 9.41714 26.6971 8.50286 25.8743 7.95429ZM17.7371 25.3714H9.41714V20.1143C9.41714 19.7943 9.55429 19.52 9.82857 19.3371L13.0286 17.0971C13.3486 16.8686 13.8057 16.8686 14.1257 17.0971L17.3257 19.3371C17.6 19.52 17.7371 19.7943 17.7371 20.1143V25.3714V25.3714ZM25.1429 24.4114C25.1429 24.96 24.7314 25.3714 24.1829 25.3714H19.7943V20.1143C19.7943 19.1543 19.3371 18.1943 18.5143 17.6457L15.3143 15.4057C14.2629 14.6743 12.8914 14.6743 11.84 15.4057L8.64 17.6457C7.81714 18.1943 7.36 19.1543 7.36 20.1143V25.3714H2.97143C2.42286 25.3714 2.01143 24.96 2.01143 24.4114V10.4229C2.01143 10.1029 2.14857 9.82857 2.42286 9.64571L13.0286 2.19429C13.2114 2.05714 13.3943 2.01143 13.5771 2.01143C13.76 2.01143 13.9429 2.05714 14.1257 2.19429L24.7314 9.6C25.0057 9.78286 25.1429 10.0571 25.1429 10.3771V24.4114V24.4114Z" fill="var(--fill-0, #0069E5)"/>
</svg>
